{"asset":{"version":"2.0","generator":"Blockbench 4.12.5 glTF exporter"},"scenes":[{"nodes":[11],"name":"blockbench_export"}],"scene":0,"nodes":[{"translation":[0,-0.1875,0.34375],"name":"ArmRight","mesh":0},{"translation":[0,-0.1875,-0.34375],"name":"ArmLeft","mesh":1},{"translation":[0,-0.875,0],"name":"Torso","mesh":2},{"translation":[0,-0.875,0.125],"name":"LegLeft","mesh":3},{"translation":[0,-0.875,-0.125],"name":"LegRight","mesh":4},{"translation":[0.1875,-0.875,0.375],"name":"Item1","mesh":5},{"rotation":[-0.7071067811865476,4.329780281177466e-17,-0.7071067811865475,4.329780281177467e-17],"translation":[0.1875,-0.5,0.375],"name":"Item2","mesh":6},{"name":"Body","children":[0,1,2,3,4,5,6]},{"translation":[0,-0.125,0],"name":"Head","mesh":7},{"rotation":[0,0,0.7071067811865475,0.7071067811865476],"translation":[0.25625,0,0],"name":"Eye","mesh":8},{"name":"Head","children":[8,9]},{"children":[7,10]}],"bufferViews":[{"buffer":0,"byteOffset":0,"byteLength":11328,"target":34962,"byteStride":12},{"buffer":0,"byteOffset":11328,"byteLength":11328,"target":34962,"byteStride":12},{"buffer":0,"byteOffset":22656,"byteLength":7552,"target":34962,"byteStride":8},{"buffer":0,"byteOffset":30208,"byteLength":2832,"target":34963},{"buffer":0,"byteOffset":33040,"byteLength":11328,"target":34962,"byteStride":12},{"buffer":0,"byteOffset":44368,"byteLength":11328,"target":34962,"byteStride":12},{"buffer":0,"byteOffset":55696,"byteLength":7552,"target":34962,"byteStride":8},{"buffer":0,"byteOffset":63248,"byteLength":2832,"target":34963},{"buffer":0,"byteOffset":66080,"byteLength":17184,"target":34962,"byteStride":12},{"buffer":0,"byteOffset":83264,"byteLength":17184,"target":34962,"byteStride":12},{"buffer":0,"byteOffset":100448,"byteLength":11456,"target":34962,"byteStride":8},{"buffer":0,"byteOffset":111904,"byteLength":4296,"target":34963},{"buffer":0,"byteOffset":116200,"byteLength":14304,"target":34962,"byteStride":12},{"buffer":0,"byteOffset":130504,"byteLength":14304,"target":34962,"byteStride":12},{"buffer":0,"byteOffset":144808,"byteLength":9536,"target":34962,"byteStride":8},{"buffer":0,"byteOffset":154344,"byteLength":3576,"target":34963},{"buffer":0,"byteOffset":157920,"byteLength":14304,"target":34962,"byteStride":12},{"buffer":0,"byteOffset":172224,"byteLength":14304,"target":34962,"byteStride":12},{"buffer":0,"byteOffset":186528,"byteLength":9536,"target":34962,"byteStride":8},{"buffer":0,"byteOffset":196064,"byteLength":3576,"target":34963},{"buffer":0,"byteOffset":199640,"byteLength":288,"target":34962,"byteStride":12},{"buffer":0,"byteOffset":199928,"byteLength":288,"target":34962,"byteStride":12},{"buffer":0,"byteOffset":200216,"byteLength":192,"target":34962,"byteStride":8},{"buffer":0,"byteOffset":200408,"byteLength":48,"target":34963},{"buffer":0,"byteOffset":200456,"byteLength":288,"target":34962,"byteStride":12},{"buffer":0,"byteOffset":200744,"byteLength":288,"target":34962,"byteStride":12},{"buffer":0,"byteOffset":201032,"byteLength":192,"target":34962,"byteStride":8},{"buffer":0,"byteOffset":201224,"byteLength":48,"target":34963},{"buffer":0,"byteOffset":201272,"byteLength":27360,"target":34962,"byteStride":12},{"buffer":0,"byteOffset":228632,"byteLength":27360,"target":34962,"byteStride":12},{"buffer":0,"byteOffset":255992,"byteLength":18240,"target":34962,"byteStride":8},{"buffer":0,"byteOffset":274232,"byteLength":6840,"target":34963},{"buffer":0,"byteOffset":281072,"byteLength":48,"target":34962,"byteStride":12},{"buffer":0,"byteOffset":281120,"byteLength":48,"target":34962,"byteStride":12},{"buffer":0,"byteOffset":281168,"byteLength":32,"target":34962,"byteStride":8},{"buffer":0,"byteOffset":281200,"byteLength":12,"target":34963}],"buffers":[{"byteLength":281212,"uri":"data:application/octet-stream;base64,"}],"accessors":[{"bufferView":0,"componentType":5126,"count":944,"max":[0.15625,0.125,0.125],"min":[-0.15625,-0.625,-0.125],"type":"VEC3"},{"bufferView":1,"componentType":5126,"count":944,"max":[1,1,1],"min":[-1,-1,-1],"type":"VEC3"},{"bufferView":2,"componentType":5126,"count":944,"max":[0.6875,0.625],"min":[0,0],"type":"VEC2"},{"bufferView":3,"componentType":5123,"count":1416,"max":[943],"min":[0],"type":"SCALAR"},{"bufferView":4,"componentType":5126,"count":944,"max":[0.15625,0.125,0.125],"min":[-0.15625,-0.625,-0.125],"type":"VEC3"},{"bufferView":5,"componentType":5126,"count":944,"max":[1,1,1],"min":[-1,-1,-1],"type":"VEC3"},{"bufferView":6,"componentType":5126,"count":944,"max":[0.6875,0.625],"min":[0,0],"type":"VEC2"},{"bufferView":7,"componentType":5123,"count":1416,"max":[943],"min":[0],"type":"SCALAR"},{"bufferView":8,"componentType":5126,"count":1432,"max":[0.15625,0.75,0.25],"min":[-0.125,0,-0.25],"type":"VEC3"},{"bufferView":9,"componentType":5126,"count":1432,"max":[1,1,1],"min":[-1,-1,-1],"type":"VEC3"},{"bufferView":10,"componentType":5126,"count":1432,"max":[0.65625,0.78125],"min":[0,0],"type":"VEC2"},{"bufferView":11,"componentType":5123,"count":2148,"max":[1431],"min":[0],"type":"SCALAR"},{"bufferView":12,"componentType":5126,"count":1192,"max":[0.125,0,0.125],"min":[-0.125,-0.75,-0.125],"type":"VEC3"},{"bufferView":13,"componentType":5126,"count":1192,"max":[1,1,1],"min":[-1,-1,-1],"type":"VEC3"},{"bufferView":14,"componentType":5126,"count":1192,"max":[0.59375,0.625],"min":[0,0],"type":"VEC2"},{"bufferView":15,"componentType":5123,"count":1788,"max":[1191],"min":[0],"type":"SCALAR"},{"bufferView":16,"componentType":5126,"count":1192,"max":[0.125,0,0.125],"min":[-0.125,-0.75,-0.125],"type":"VEC3"},{"bufferView":17,"componentType":5126,"count":1192,"max":[1,1,1],"min":[-1,-1,-1],"type":"VEC3"},{"bufferView":18,"componentType":5126,"count":1192,"max":[0.59375,0.625],"min":[0,0],"type":"VEC2"},{"bufferView":19,"componentType":5123,"count":1788,"max":[1191],"min":[0],"type":"SCALAR"},{"bufferView":20,"componentType":5126,"count":24,"max":[0.0625,0.3125,0.0625],"min":[-0.0625,0.1875,-0.0625],"type":"VEC3"},{"bufferView":21,"componentType":5126,"count":24,"max":[0.8944271802902222,0.4472135901451111,0.8944271802902222],"min":[-0.8944271802902222,-1,-0.8944271802902222],"type":"VEC3"},{"bufferView":22,"componentType":5126,"count":24,"max":[0.5,0.5590187311172485],"min":[0,0],"type":"VEC2"},{"bufferView":23,"componentType":5123,"count":24,"max":[23],"min":[0],"type":"SCALAR"},{"bufferView":24,"componentType":5126,"count":24,"max":[0.0625,0.3125,0.0625],"min":[-0.0625,0.1875,-0.0625],"type":"VEC3"},{"bufferView":25,"componentType":5126,"count":24,"max":[0.8944271802902222,0.4472135901451111,0.8944271802902222],"min":[-0.8944271802902222,-1,-0.8944271802902222],"type":"VEC3"},{"bufferView":26,"componentType":5126,"count":24,"max":[0.5,0.5590187311172485],"min":[0,0],"type":"VEC2"},{"bufferView":27,"componentType":5123,"count":24,"max":[23],"min":[0],"type":"SCALAR"},{"bufferView":28,"componentType":5126,"count":2280,"max":[0.28125,0.5625,0.3125],"min":[-0.3125,0,-0.3125],"type":"VEC3"},{"bufferView":29,"componentType":5126,"count":2280,"max":[1,1,1],"min":[-1,-1,-1],"type":"VEC3"},{"bufferView":30,"componentType":5126,"count":2280,"max":[0.53125,0.546875],"min":[0,0],"type":"VEC2"},{"bufferView":31,"componentType":5123,"count":3420,"max":[2279],"min":[0],"type":"SCALAR"},{"bufferView":32,"componentType":5126,"count":4,"max":[0.0625,0,0.1875],"min":[-0.0625,0,-0.1875],"type":"VEC3"},{"bufferView":33,"componentType":5126,"count":4,"max":[0,1,0],"min":[0,1,0],"type":"VEC3"},{"bufferView":34,"componentType":5126,"count":4,"max":[0.75,0.25],"min":[0,0],"type":"VEC2"},{"bufferView":35,"componentType":5123,"count":6,"max":[3],"min":[0],"type":"SCALAR"}],"materials":[{"pbrMetallicRoughness":{"metallicFactor":0,"roughnessFactor":1,"baseColorTexture":{"index":0}},"alphaMode":"MASK","alphaCutoff":0.05,"doubleSided":true},{"pbrMetallicRoughness":{"metallicFactor":0,"roughnessFactor":1,"baseColorTexture":{"index":1}},"alphaMode":"MASK","alphaCutoff":0.05,"doubleSided":true},{"pbrMetallicRoughness":{"metallicFactor":0,"roughnessFactor":1,"baseColorTexture":{"index":2}},"alphaMode":"MASK","alphaCutoff":0.05,"doubleSided":true},{"pbrMetallicRoughness":{"metallicFactor":0,"roughnessFactor":1},"alphaMode":"MASK","alphaCutoff":0.05,"doubleSided":true},{"pbrMetallicRoughness":{"metallicFactor":0,"roughnessFactor":1,"baseColorTexture":{"index":3}},"alphaMode":"MASK","alphaCutoff":0.05,"doubleSided":true},{"pbrMetallicRoughness":{"metallicFactor":0,"roughnessFactor":1,"baseColorTexture":{"index":4}},"alphaMode":"MASK","alphaCutoff":0.05,"doubleSided":true}],"textures":[{"sampler":0,"source":0,"name":"Braco"},{"sampler":1,"source":1,"name":"Torso"},{"sampler":2,"source":2,"name":"Perna"},{"sampler":3,"source":3,"name":"Cabeca"},{"sampler":4,"source":4,"name":"Olho"}],"samplers":[{"magFilter":9728,"minFilter":9728,"wrapS":33071,"wrapT":33071},{"magFilter":9728,"minFilter":9728,"wrapS":33071,"wrapT":33071},{"magFilter":9728,"minFilter":9728,"wrapS":33071,"wrapT":33071},{"magFilter":9728,"minFilter":9728,"wrapS":33071,"wrapT":33071},{"magFilter":9728,"minFilter":9728,"wrapS":33071,"wrapT":33071}],"images":[{"mimeType":"image/png","uri":"data:image/png;base64,"},{"mimeType":"image/png","uri":"data:image/png;base64,"},{"mimeType":"image/png","uri":"data:image/png;base64,"},{"mimeType":"image/png","uri":"data:image/png;base64,"},{"mimeType":"image/png","uri":"data:image/png;base64,"}],"meshes":[{"primitives":[{"mode":4,"attributes":{"POSITION":0,"NORMAL":1,"TEXCOORD_0":2},"indices":3,"material":0}]},{"primitives":[{"mode":4,"attributes":{"POSITION":4,"NORMAL":5,"TEXCOORD_0":6},"indices":7,"material":0}]},{"primitives":[{"mode":4,"attributes":{"POSITION":8,"NORMAL":9,"TEXCOORD_0":10},"indices":11,"material":1}]},{"primitives":[{"mode":4,"attributes":{"POSITION":12,"NORMAL":13,"TEXCOORD_0":14},"indices":15,"material":2}]},{"primitives":[{"mode":4,"attributes":{"POSITION":16,"NORMAL":17,"TEXCOORD_0":18},"indices":19,"material":2}]},{"primitives":[{"mode":4,"attributes":{"POSITION":20,"NORMAL":21,"TEXCOORD_0":22},"indices":23,"material":3}]},{"primitives":[{"mode":4,"attributes":{"POSITION":24,"NORMAL":25,"TEXCOORD_0":26},"indices":27,"material":3}]},{"primitives":[{"mode":4,"attributes":{"POSITION":28,"NORMAL":29,"TEXCOORD_0":30},"indices":31,"material":4}]},{"primitives":[{"mode":4,"attributes":{"POSITION":32,"NORMAL":33,"TEXCOORD_0":34},"indices":35,"material":5}]}]}